<svg width="36" height="36" viewBox="0 0 36 36" fill="none" xmlns="http://www.w3.org/2000/svg">
<path d="M18 3C14.0218 3 10.2064 4.58035 7.3934 7.3934C4.58035 10.2064 3 14.0218 3 18C3 21.9782 4.58035 25.7936 7.3934 28.6066C10.2064 31.4196 14.0218 33 18 33C21.9782 33 25.7936 31.4196 28.6066 28.6066C31.4196 25.7936 33 21.9782 33 18C33 14.0218 31.4196 10.2064 28.6066 7.3934C25.7936 4.58035 21.9782 3 18 3Z" fill="#039BE5"/>
<path d="M19.928 22.7771H23.6158L24.1948 19.0308H19.9273V16.9833C19.9273 15.4271 20.4358 14.0471 21.8915 14.0471H24.2308V10.7778C23.8198 10.7223 22.9505 10.6008 21.308 10.6008C17.8783 10.6008 15.8675 12.4121 15.8675 16.5386V19.0308H12.3418V22.7771H15.8675V33.0738C16.5658 33.1788 17.273 33.2501 17.999 33.2501C18.6553 33.2501 19.2958 33.1901 19.928 33.1046V22.7771Z" fill="white"/>
</svg>
