<svg width="18" height="18" viewBox="0 0 18 18" fill="none" xmlns="http://www.w3.org/2000/svg">
<path d="M3.5 15.0353C4.93825 13.6374 6.88433 12.7776 9.02108 12.7776C11.1368 12.7776 13.0618 13.62 14.5 14.9922C13.0618 16.3902 11.1157 17.25 8.97892 17.25C6.86325 17.25 4.93825 16.4076 3.5 15.0353Z" stroke="#292929" stroke-linecap="round" stroke-linejoin="round"/>
<path d="M1.64375 12.6896C1.08458 11.5768 0.75 10.331 0.75 9C0.75 4.4405 4.4405 0.75 9 0.75C13.5595 0.75 17.25 4.4405 17.25 9C17.25 10.3292 16.9173 11.5758 16.3544 12.6878" stroke="#292929" stroke-linecap="round" stroke-linejoin="round"/>
<path d="M10.9445 5.22212C12.0185 6.29606 12.0185 8.03727 10.9445 9.11121C9.8706 10.1851 8.12939 10.1851 7.05545 9.11121C5.98152 8.03727 5.98152 6.29606 7.05545 5.22212C8.12939 4.14818 9.8706 4.14818 10.9445 5.22212Z" stroke="#292929" stroke-linecap="round" stroke-linejoin="round"/>
</svg>
